<svg width="206" height="197" viewBox="0 0 206 197" fill="none" xmlns="http://www.w3.org/2000/svg">
<rect x="10" width="196" height="180" rx="15" fill="#D9D9D9" fill-opacity="0.5"/>
<rect x="10" width="196" height="180" rx="15" fill="url(#paint0_linear_32_1585)" fill-opacity="0.6"/>
<rect y="17" width="196" height="180" rx="15" fill="url(#paint1_linear_32_1585)"/>
<rect x="62" y="59" width="104" height="6" rx="3" fill="white"/>
<rect x="62" y="90" width="104" height="6" rx="3" fill="white"/>
<rect x="62" y="134" width="104" height="6" rx="3" fill="white"/>
<rect x="62" y="122" width="36" height="6" rx="3" fill="white"/>
<rect x="130" y="162" width="36" height="6" rx="3" fill="white"/>
<rect x="62" y="47" width="36" height="6" rx="3" fill="white"/>
<path d="M44 46C46.7614 46 49 48.2386 49 51V59C49 61.7614 46.7614 64 44 64H36C33.2386 64 31 61.7614 31 59V51C31 48.2386 33.2386 46 36 46H44ZM41.1318 51.7637C40.7009 50.8572 39.4908 50.8002 38.9629 51.5938L38.8672 51.7637L38.3857 52.7783C38.3543 52.8445 38.3037 52.8905 38.248 52.9141L38.1904 52.9297L37.1143 53.0928C36.0617 53.2522 35.6939 54.5567 36.4121 55.2852L37.1914 56.0742L37.2334 56.1289C37.2571 56.1688 37.2717 56.2157 37.2754 56.2646L37.2725 56.3408L37.0879 57.4551C36.9213 58.4657 37.9607 59.333 38.9229 58.8076L39.8857 58.2812L39.9414 58.2588C39.9985 58.244 40.0595 58.252 40.1133 58.2812L41.0762 58.8076L41.2568 58.8896C42.103 59.202 42.9471 58.5072 42.9287 57.6426L42.9111 57.4551L42.7266 56.3408C42.71 56.2394 42.7437 56.1391 42.8076 56.0742L43.5869 55.2852L43.709 55.1416C44.2204 54.447 43.9193 53.3944 43.0742 53.1357L42.8848 53.0928L41.8086 52.9297C41.7511 52.9209 41.6939 52.8893 41.6514 52.8369L41.6133 52.7783L41.1318 51.7637ZM39.8145 52.125C39.9315 51.9902 40.1427 52.0129 40.2285 52.1924L40.71 53.207L40.7852 53.3428C40.9782 53.6486 41.2937 53.8636 41.6592 53.9189L42.7354 54.0811L42.8047 54.1025C42.8695 54.1329 42.9205 54.1914 42.9463 54.2734C42.9721 54.3562 42.9653 54.442 42.9258 54.5146L42.875 54.582L42.0957 55.3721C41.8023 55.6697 41.6728 56.0928 41.7402 56.5029L41.9238 57.6182L41.9268 57.71C41.9172 57.7958 41.8734 57.8645 41.8145 57.9092C41.7565 57.9529 41.6903 57.9709 41.623 57.9561L41.5557 57.9297L40.5928 57.4033C40.2687 57.2264 39.8871 57.2042 39.5488 57.3369L39.4062 57.4033L38.4434 57.9297C38.3534 57.9787 38.2628 57.9675 38.1855 57.9092C38.1068 57.8495 38.0541 57.747 38.0752 57.6182L38.2588 56.5029L38.2754 56.3486C38.2894 56.0404 38.1948 55.7343 38.0059 55.4893L37.9033 55.3721L37.124 54.582C37.0423 54.4988 37.0193 54.3835 37.0537 54.2734C37.088 54.1641 37.1658 54.096 37.2637 54.0811L38.3398 53.9189L38.4932 53.8857C38.843 53.7865 39.1321 53.5375 39.2891 53.207L39.7705 52.1924L39.8145 52.125Z" fill="#22B07D"/>
<path d="M44 84C46.7614 84 49 86.2386 49 89V97C49 99.7614 46.7614 102 44 102H36C33.2386 102 31 99.7614 31 97V89C31 86.2386 33.2386 84 36 84H44ZM41.1318 89.7637C40.7009 88.8572 39.4908 88.8002 38.9629 89.5938L38.8672 89.7637L38.3857 90.7783C38.3543 90.8445 38.3037 90.8905 38.248 90.9141L38.1904 90.9297L37.1143 91.0928C36.0617 91.2522 35.6939 92.5567 36.4121 93.2852L37.1914 94.0742L37.2334 94.1289C37.2571 94.1688 37.2717 94.2157 37.2754 94.2646L37.2725 94.3408L37.0879 95.4551C36.9213 96.4657 37.9607 97.333 38.9229 96.8076L39.8857 96.2812L39.9414 96.2588C39.9985 96.244 40.0595 96.252 40.1133 96.2812L41.0762 96.8076L41.2568 96.8896C42.103 97.202 42.9471 96.5072 42.9287 95.6426L42.9111 95.4551L42.7266 94.3408C42.71 94.2394 42.7437 94.1391 42.8076 94.0742L43.5869 93.2852L43.709 93.1416C44.2204 92.447 43.9193 91.3944 43.0742 91.1357L42.8848 91.0928L41.8086 90.9297C41.7511 90.9209 41.6939 90.8893 41.6514 90.8369L41.6133 90.7783L41.1318 89.7637ZM39.8145 90.125C39.9315 89.9902 40.1427 90.0129 40.2285 90.1924L40.71 91.207L40.7852 91.3428C40.9782 91.6486 41.2937 91.8636 41.6592 91.9189L42.7354 92.0811L42.8047 92.1025C42.8695 92.1329 42.9205 92.1914 42.9463 92.2734C42.9721 92.3562 42.9653 92.442 42.9258 92.5146L42.875 92.582L42.0957 93.3721C41.8023 93.6697 41.6728 94.0928 41.7402 94.5029L41.9238 95.6182L41.9268 95.71C41.9172 95.7958 41.8734 95.8645 41.8145 95.9092C41.7565 95.9529 41.6903 95.9709 41.623 95.9561L41.5557 95.9297L40.5928 95.4033C40.2687 95.2264 39.8871 95.2042 39.5488 95.3369L39.4062 95.4033L38.4434 95.9297C38.3534 95.9787 38.2628 95.9675 38.1855 95.9092C38.1068 95.8495 38.0541 95.747 38.0752 95.6182L38.2588 94.5029L38.2754 94.3486C38.2894 94.0404 38.1948 93.7343 38.0059 93.4893L37.9033 93.3721L37.124 92.582C37.0423 92.4988 37.0193 92.3835 37.0537 92.2734C37.088 92.1641 37.1658 92.096 37.2637 92.0811L38.3398 91.9189L38.4932 91.8857C38.843 91.7865 39.1321 91.5375 39.2891 91.207L39.7705 90.1924L39.8145 90.125Z" fill="#C184FF"/>
<path d="M44 122C46.7614 122 49 124.239 49 127V135C49 137.761 46.7614 140 44 140H36C33.2386 140 31 137.761 31 135V127C31 124.239 33.2386 122 36 122H44ZM41.1318 127.764C40.7009 126.857 39.4908 126.8 38.9629 127.594L38.8672 127.764L38.3857 128.778C38.3543 128.844 38.3037 128.89 38.248 128.914L38.1904 128.93L37.1143 129.093C36.0617 129.252 35.6939 130.557 36.4121 131.285L37.1914 132.074L37.2334 132.129C37.2571 132.169 37.2717 132.216 37.2754 132.265L37.2725 132.341L37.0879 133.455C36.9213 134.466 37.9607 135.333 38.9229 134.808L39.8857 134.281L39.9414 134.259C39.9985 134.244 40.0595 134.252 40.1133 134.281L41.0762 134.808L41.2568 134.89C42.103 135.202 42.9471 134.507 42.9287 133.643L42.9111 133.455L42.7266 132.341C42.71 132.239 42.7437 132.139 42.8076 132.074L43.5869 131.285L43.709 131.142C44.2204 130.447 43.9193 129.394 43.0742 129.136L42.8848 129.093L41.8086 128.93C41.7511 128.921 41.6939 128.889 41.6514 128.837L41.6133 128.778L41.1318 127.764ZM39.8145 128.125C39.9315 127.99 40.1427 128.013 40.2285 128.192L40.71 129.207L40.7852 129.343C40.9782 129.649 41.2937 129.864 41.6592 129.919L42.7354 130.081L42.8047 130.103C42.8695 130.133 42.9205 130.191 42.9463 130.273C42.9721 130.356 42.9653 130.442 42.9258 130.515L42.875 130.582L42.0957 131.372C41.8023 131.67 41.6728 132.093 41.7402 132.503L41.9238 133.618L41.9268 133.71C41.9172 133.796 41.8734 133.864 41.8145 133.909C41.7565 133.953 41.6903 133.971 41.623 133.956L41.5557 133.93L40.5928 133.403C40.2687 133.226 39.8871 133.204 39.5488 133.337L39.4062 133.403L38.4434 133.93C38.3534 133.979 38.2628 133.968 38.1855 133.909C38.1068 133.849 38.0541 133.747 38.0752 133.618L38.2588 132.503L38.2754 132.349C38.2894 132.04 38.1948 131.734 38.0059 131.489L37.9033 131.372L37.124 130.582C37.0423 130.499 37.0193 130.384 37.0537 130.273C37.088 130.164 37.1658 130.096 37.2637 130.081L38.3398 129.919L38.4932 129.886C38.843 129.787 39.1321 129.537 39.2891 129.207L39.7705 128.192L39.8145 128.125Z" fill="#1977FF"/>
<defs>
<linearGradient id="paint0_linear_32_1585" x1="108" y1="180" x2="108" y2="-160.5" gradientUnits="userSpaceOnUse">
<stop stop-color="#53B9F5"/>
<stop offset="1" stop-color="#1977FF"/>
</linearGradient>
<linearGradient id="paint1_linear_32_1585" x1="98" y1="17" x2="98" y2="341" gradientUnits="userSpaceOnUse">
<stop stop-color="#D9D9D9"/>
<stop offset="1" stop-color="#1977FF"/>
</linearGradient>
</defs>
</svg>
