<svg width="200" height="200" viewBox="0 0 200 200" fill="none" xmlns="http://www.w3.org/2000/svg">
<path d="M0 100C0 44.7715 44.7715 0 100 0V0C155.228 0 200 44.7715 200 100V100C200 155.228 155.228 200 100 200V200C44.7715 200 0 155.228 0 100V100Z" fill="#1977FF" fill-opacity="0.2"/>
<path d="M100 138.261C127.498 138.261 151.163 154.785 161.739 178.51C144.741 191.971 123.302 200 100 200C76.6983 200 55.2589 191.971 38.2609 178.51C48.8366 154.785 72.5018 138.261 100 138.261Z" fill="#1977FF"/>
<path d="M135.652 92.6089C135.652 112.539 119.69 128.696 100 128.696C80.3098 128.696 64.3478 112.539 64.3478 92.6089C64.3478 72.6787 80.3098 56.522 100 56.522C119.69 56.522 135.652 72.6787 135.652 92.6089Z" fill="#1977FF"/>
</svg>
