<svg width="12" height="12" viewBox="0 0 12 12" fill="none" xmlns="http://www.w3.org/2000/svg">
<path d="M1.79999 0H2.39999V2.4H1.79999V0Z" fill="#AAADB2"/>
<path d="M9.59999 0H10.2V2.4H9.59999V0Z" fill="#AAADB2"/>
<path d="M0.599991 4.19971L0.599991 3.59971L12 3.59971L12 4.19971L0.599991 4.19971Z" fill="#AAADB2"/>
<path d="M10.0373 0.602937C11.1306 0.658471 12 1.56575 12 2.67702V9.32317L11.9972 9.42986C11.9436 10.492 11.0954 11.3435 10.0373 11.3973L9.93103 11.4001H2.06897L1.96269 11.3973C0.904626 11.3435 0.0563684 10.492 0.00282866 9.42986L0 9.32317V2.67702C1.03312e-07 1.56575 0.869423 0.658471 1.96269 0.602937L2.06897 0.600098H9.93103L10.0373 0.602937ZM2.06897 1.22317C1.26911 1.22317 0.62069 1.87408 0.62069 2.67702V9.32317C0.62069 10.1261 1.26911 10.777 2.06897 10.777H9.93103C10.7309 10.777 11.3793 10.1261 11.3793 9.32317V2.67702C11.3793 1.87408 10.7309 1.22317 9.93103 1.22317H2.06897Z" fill="#AAADB2"/>
<path d="M1.79999 6.6001L1.79999 5.4001L2.99999 5.4001L2.99999 6.6001L1.79999 6.6001Z" fill="#AAADB2"/>
<path d="M1.79999 8.3999L1.79999 7.1999L2.99999 7.1999L2.99999 8.3999L1.79999 8.3999Z" fill="#AAADB2"/>
<path d="M4.20001 6.6001L4.20001 5.4001L5.40001 5.4001L5.40001 6.6001L4.20001 6.6001Z" fill="#AAADB2"/>
<path d="M4.20001 8.3999L4.20001 7.1999L5.40001 7.1999L5.40001 8.3999L4.20001 8.3999Z" fill="#AAADB2"/>
<path d="M6.59999 6.6001L6.59999 5.4001L7.79999 5.4001L7.79999 6.6001L6.59999 6.6001Z" fill="#AAADB2"/>
<path d="M6.59999 8.3999L6.59999 7.1999L7.79999 7.1999L7.79999 8.3999L6.59999 8.3999Z" fill="#AAADB2"/>
<path d="M9 6.6001L9 5.4001L10.2 5.4001L10.2 6.6001L9 6.6001Z" fill="#AAADB2"/>
<path d="M9 8.3999L9 7.1999L10.2 7.1999L10.2 8.3999L9 8.3999Z" fill="#AAADB2"/>
</svg>
