<svg width="22" height="22" viewBox="0 0 22 22" fill="none" xmlns="http://www.w3.org/2000/svg">
<path d="M22 17C22 19.7614 19.7614 22 17 22H5C2.23858 22 0 19.7614 0 17V5C0 2.23858 2.23858 0 5 0H17C19.7614 0 22 2.23858 22 5V17ZM9.14648 11.6611C9.07885 11.6672 8.87264 11.7 8.68848 11.7344C6.65177 12.1142 4.99109 13.7428 4.5625 15.7793C4.48482 16.1485 4.42431 16.7994 4.45117 16.9785C4.48883 17.2291 4.68736 17.4542 4.93262 17.5244C5.09931 17.568 14.2771 17.5643 14.4512 17.5205C14.616 17.4789 14.7888 17.3399 14.8682 17.1846C14.993 16.9393 14.9252 16.0712 14.7285 15.3936C14.0803 13.1609 11.9857 11.6143 9.65332 11.6455C9.44208 11.6484 9.21394 11.6551 9.14648 11.6611ZM16.6055 9.68652C16.1429 9.67951 16.0638 9.68561 15.9561 9.73633C15.5254 9.93916 15.4405 10.5028 15.791 10.834C15.8478 10.8876 15.933 10.9458 15.9805 10.9639C16.0286 10.982 16.2907 10.9961 16.5723 10.9961C17.0144 10.9961 17.0926 10.9893 17.1963 10.9365C17.6419 10.7094 17.6794 10.0788 17.2646 9.78711C17.1781 9.72665 17.0754 9.6935 16.9698 9.69193L16.6055 9.68652ZM12.9189 7.1123C12.5939 5.40069 10.9928 4.24798 9.25293 4.47266C8.24883 4.6024 7.31843 5.23874 6.8125 6.14258C6.68318 6.37371 6.53935 6.76103 6.47266 7.05566C6.40334 7.36186 6.40452 8.08243 6.47559 8.40723C6.76121 9.71226 7.77618 10.7035 9.07812 10.9502C9.42348 11.0155 10.0291 11.0094 10.3779 10.9375C11.6281 10.6795 12.6482 9.66019 12.9062 8.41113C12.9783 8.06244 12.9844 7.45726 12.9189 7.1123ZM15.5811 7.0752C14.4068 7.07614 14.0662 7.08529 13.9932 7.11719C13.6756 7.25778 13.5195 7.68446 13.667 8.00879C13.7367 8.16204 13.9099 8.31693 14.0615 8.36133C14.1414 8.38455 14.6405 8.39226 15.6543 8.38574L16.9706 8.37704C17.0756 8.37635 17.1778 8.34361 17.2637 8.2832C17.6805 7.99047 17.6438 7.363 17.1963 7.13477C17.0831 7.07706 17.0109 7.07406 15.5811 7.0752ZM16.2773 4.44824C15.7027 4.44381 15.4365 4.45227 15.3652 4.47852C15.0896 4.58096 14.9287 4.81552 14.9287 5.11328C14.9288 5.3376 15.0001 5.49556 15.1631 5.62988C15.337 5.77309 15.494 5.79374 16.3389 5.78223C17.155 5.77111 17.1799 5.76621 17.3623 5.58398C17.5043 5.44215 17.5488 5.33036 17.5488 5.11328C17.5488 4.89603 17.5042 4.78442 17.3623 4.64258C17.1772 4.45764 17.1627 4.45505 16.2773 4.44824Z" fill="#AAADB2"/>
</svg>
