<svg viewBox="0 0 25 25" fill="none" xmlns="http://www.w3.org/2000/svg">
<path d="M12.1773 24.5635C5.46762 24.5635 0 19.049 0 12.2818C0 5.51455 5.46762 6.10352e-05 12.1773 6.10352e-05C18.887 6.10352e-05 24.3547 5.51455 24.3547 12.2818C24.3547 19.049 18.887 24.5635 12.1773 24.5635ZM16.2689 9.45698C16.6221 9.10081 16.6221 8.51128 16.2689 8.15512C16.0863 7.97089 15.8549 7.88492 15.6235 7.88492C15.3921 7.88492 15.1608 7.97089 14.9781 8.15512L12.1773 10.9799L9.37654 8.15512C9.19388 7.97089 8.96251 7.88492 8.73115 7.88492C8.49978 7.88492 8.26841 7.97089 8.08575 8.15512C7.7326 8.51128 7.7326 9.10081 8.08575 9.45698L10.8865 12.2818L8.08575 15.1066C7.7326 15.4627 7.7326 16.0523 8.08575 16.4084C8.43889 16.7646 9.0234 16.7646 9.37654 16.4084L12.1773 13.5836L14.9781 16.4084C15.3313 16.7646 15.9158 16.7646 16.2689 16.4084C16.6221 16.0523 16.6221 15.4627 16.2689 15.1066L13.4681 12.2818L16.2689 9.45698Z" fill="currentColor"/>
</svg>
