<svg width="40" height="40" viewBox="0 0 40 40" fill="none" xmlns="http://www.w3.org/2000/svg">
<path d="M25 0C33.2843 0 40 6.71573 40 15V25C40 33.2843 33.2843 40 25 40H15C6.71573 40 0 33.2843 0 25V15C0 6.71573 6.71573 0 15 0H25ZM22.8682 12.6426C21.7432 10.2729 18.5043 10.1985 17.2471 12.4199L17.1318 12.6426L16.0615 14.8965C16.0317 14.959 15.9902 14.992 15.9551 15.0068L15.9219 15.0156L13.5303 15.377C10.8554 15.7811 9.94551 19.0758 11.751 20.9062L13.4824 22.6611L13.5186 22.709C13.5398 22.7452 13.5548 22.7897 13.5586 22.8389L13.5557 22.916L13.1465 25.3936C12.7294 27.9243 15.3413 30.1439 17.7949 28.8027L19.9346 27.6338L19.9688 27.6201C19.9797 27.6173 19.9902 27.6162 20 27.6162C20.0197 27.6162 20.0416 27.6208 20.0654 27.6338L22.2051 28.8027L22.4355 28.918C24.7426 29.9701 27.101 27.9808 26.8838 25.6289L26.8535 25.3936L26.4443 22.916C26.4269 22.8102 26.4645 22.715 26.5176 22.6611L28.248 20.9062L28.4102 20.7305C29.9447 18.9326 29.1185 15.9679 26.7148 15.4238L26.4697 15.377L24.0771 15.0156C24.0485 15.0112 24.0073 14.9931 23.9717 14.9492L23.9385 14.8965L22.8682 12.6426ZM20 13.8076C20.031 13.8076 20.0582 13.8162 20.0791 13.8291C20.0953 13.8391 20.1269 13.8628 20.1582 13.9287L21.2275 16.1826L21.3174 16.3574C21.7911 17.2178 22.6351 17.8321 23.6299 17.9824L26.0215 18.3438L26.0713 18.3584C26.0844 18.3647 26.0952 18.3724 26.1045 18.3809C26.1282 18.4027 26.1572 18.4427 26.1758 18.502C26.2046 18.5942 26.1951 18.6751 26.1582 18.7402L26.1133 18.7998L24.3818 20.5537C23.6397 21.3059 23.3142 22.3722 23.4844 23.4043L23.8936 25.8818L23.8965 25.9824C23.8932 26.0099 23.8865 26.0323 23.8789 26.0508C23.8614 26.0929 23.8325 26.13 23.7979 26.1562C23.7632 26.1824 23.7335 26.1899 23.7178 26.1914C23.7134 26.1918 23.706 26.1928 23.6943 26.1904L23.6445 26.1709L21.5049 25.001C20.6237 24.5194 19.5758 24.4897 18.6738 24.9111L18.4951 25.001L16.3555 26.1709C16.3122 26.1945 16.291 26.1923 16.2822 26.1914C16.2665 26.1899 16.2368 26.1824 16.2021 26.1562C16.1675 26.13 16.1386 26.0929 16.1211 26.0508C16.1057 26.0136 16.0936 25.9603 16.1064 25.8818L16.5156 23.4043L16.541 23.2109C16.6362 22.305 16.3557 21.3897 15.752 20.6982L15.6182 20.5537L13.8867 18.7998C13.8155 18.7276 13.7858 18.6247 13.8242 18.502C13.8428 18.4427 13.8718 18.4027 13.8955 18.3809C13.914 18.3639 13.9364 18.3501 13.9785 18.3438L16.3701 17.9824L16.5674 17.9463C17.5409 17.7352 18.349 17.0747 18.7725 16.1826L19.8418 13.9287L19.8867 13.8574C19.9005 13.842 19.9128 13.8341 19.9209 13.8291C19.9418 13.8162 19.969 13.8076 20 13.8076Z" fill="#22B07D"/>
</svg>
