<svg width="61" height="38" viewBox="0 0 61 38" fill="none" xmlns="http://www.w3.org/2000/svg">
<path d="M59.7614 33.2761C59.7614 33.7552 59.8646 34.1146 60.0708 34.3542C60.2772 34.5596 60.5873 34.6796 61 34.7139V37.4863C60.3121 37.589 59.7784 37.6237 59.4001 37.5895C58.6779 37.5552 58.0416 37.2639 57.4914 36.7162C56.9412 36.1685 56.6658 35.5692 56.6658 34.9188V32.3003C55.5997 34.0462 54.1551 35.4328 52.3324 36.4597C50.5096 37.4867 48.6177 38 46.6574 38C44.8003 38 43.0804 37.6233 41.4984 36.8702C39.9509 36.1171 38.5926 35.0898 37.4234 33.789C36.2884 32.4881 35.3937 31.0163 34.7402 29.3731C34.3995 28.4498 34.1536 27.5107 34.0004 26.5562H29.564C29.4033 27.5566 29.1386 28.5296 28.7701 29.4756C28.1167 31.1188 27.1879 32.5913 25.9841 33.8922C24.8148 35.1587 23.405 36.1687 21.7543 36.9218C20.1378 37.6407 18.3492 38 16.3888 38C14.4628 38 12.6741 37.6407 11.0233 36.9218C9.40682 36.1687 7.99647 35.1588 6.79273 33.8922C5.6234 32.5913 4.71197 31.1188 4.05851 29.4756C3.40512 27.7982 3.07825 26.0349 3.07825 24.1864C3.07827 22.2695 3.40516 20.4894 4.05851 18.8463C4.20917 18.4596 4.3752 18.0836 4.55512 17.7187C4.40351 17.3947 4.3448 17.0233 4.40829 16.6441C4.42613 16.5365 4.417 16.1368 4.17439 15.437C3.94869 14.786 3.57781 14.0404 3.09768 13.3215C2.06633 11.7774 0.866819 10.8377 0 10.6808L0.659265 7.07158C3.03507 7.50155 4.96781 9.49685 6.16585 11.2905C6.70159 12.0926 7.15385 12.9482 7.48582 13.7828C8.5409 12.7893 9.73734 11.995 11.0751 11.4001C12.7259 10.6469 14.5146 10.2703 16.4406 10.2703C18.3665 10.2703 20.1379 10.647 21.7543 11.4001C23.3706 12.119 24.7804 13.129 25.9841 14.4297C27.1879 15.6964 28.1167 17.1688 28.7701 18.8463C29.3589 20.327 29.6821 21.9188 29.7403 23.6219H33.8219C33.8933 21.3088 34.4053 19.1859 35.3599 17.2538C36.4261 15.1315 37.8874 13.4368 39.7445 12.1702C41.6017 10.9035 43.7171 10.2703 46.0902 10.2703C48.3258 10.2703 50.3207 10.8696 52.0747 12.0678C53.8631 13.2317 55.2561 14.6522 56.2534 16.3296V0H59.7614V33.2761ZM16.3888 13.3515C14.6003 13.3515 12.9664 13.8481 11.4875 14.8409C10.0431 15.8337 8.87371 17.1516 7.97955 18.7948C7.08536 20.4037 6.63799 22.2182 6.63799 24.238C6.638 26.2235 7.06796 28.038 7.92773 29.6812C8.82192 31.2901 10.0087 32.574 11.4875 33.5325C12.9664 34.4569 14.6003 34.9188 16.3888 34.9188C18.1772 34.9188 19.8112 34.4395 21.2901 33.4809C22.7687 32.5225 23.955 31.2217 24.8491 29.5787C25.7433 27.9013 26.1906 26.0868 26.1907 24.1355C26.1907 22.15 25.7433 20.3355 24.8491 18.6923C23.9549 17.0492 22.7688 15.7479 21.2901 14.7894C19.8112 13.8308 18.1772 13.3516 16.3888 13.3515ZM46.9676 13.3515C45.5231 13.3515 44.2159 13.6595 43.0465 14.2757C41.8772 14.8577 40.8627 15.6623 40.0028 16.6893C39.1775 17.7162 38.5412 18.8802 38.0941 20.181C37.6471 21.4818 37.4234 22.8171 37.4234 24.1864C37.4234 25.6242 37.6637 26.994 38.1452 28.2949C38.6611 29.5958 39.3837 30.7597 40.3123 31.7867C41.2409 32.7794 42.307 33.55 43.5108 34.0978C44.7145 34.6455 46.0217 34.9188 47.4318 34.9188C48.3259 34.9187 49.2543 34.7481 50.2171 34.4058C51.1801 34.0635 52.0916 33.6008 52.9514 33.0189C53.8456 32.4027 54.5856 31.6841 55.1703 30.8625C55.7549 30.041 56.1158 29.1849 56.2534 28.2949V20.027C55.8063 18.7946 55.0837 17.682 54.0864 16.6893C53.0891 15.6624 51.9544 14.8576 50.6821 14.2757C49.444 13.6595 48.2056 13.3516 46.9676 13.3515ZM20.3904 20.6875C22.8326 20.6875 24.8124 22.6581 24.8124 25.089C24.8123 27.5198 22.8325 29.4906 20.3904 29.4906C17.9484 29.4905 15.9686 27.5198 15.9685 25.089C15.9685 22.6582 17.9483 20.6876 20.3904 20.6875ZM42.5003 20.6875C44.9425 20.6875 46.9222 22.6581 46.9222 25.089C46.9221 27.5198 44.9424 29.4906 42.5003 29.4906C40.0582 29.4905 38.0784 27.5198 38.0783 25.089C38.0783 22.6582 40.0582 20.6876 42.5003 20.6875Z" fill="url(#paint0_linear_77_283)"/>
<defs>
<linearGradient id="paint0_linear_77_283" x1="46.2922" y1="3.45455" x2="46.2922" y2="38" gradientUnits="userSpaceOnUse">
<stop stop-color="#53B9F5"/>
<stop offset="1" stop-color="#1977FF"/>
</linearGradient>
</defs>
</svg>
