<svg width="144" height="144" viewBox="0 0 144 144" fill="none" xmlns="http://www.w3.org/2000/svg">
<rect width="144" height="144" fill="white"/>
<path d="M124.645 99.0494C124.645 99.9572 124.841 100.638 125.233 101.092C125.625 101.481 126.215 101.709 127 101.774V107.027C125.692 107.221 124.677 107.287 123.957 107.222C122.584 107.157 121.374 106.605 120.328 105.568C119.282 104.53 118.758 103.394 118.758 102.162V97.2006C116.731 100.508 113.984 103.136 110.517 105.082C107.051 107.027 103.453 108 99.7255 108C96.194 108 92.9234 107.286 89.915 105.859C86.9722 104.432 84.3893 102.486 82.1657 100.021C80.0075 97.5564 78.306 94.7678 77.0634 91.6543C76.4154 89.9048 75.9477 88.1255 75.6564 86.3171H67.2201C66.9145 88.2124 66.4111 90.0562 65.7104 91.8484C64.4678 94.9619 62.7015 97.7519 60.4124 100.217C58.1889 102.616 55.5079 104.53 52.3688 105.957C49.2949 107.319 45.8935 108 42.1655 108C38.503 108 35.1016 107.319 31.9623 105.957C28.8884 104.53 26.2064 102.617 23.9173 100.217C21.6937 97.7519 19.9605 94.9619 18.7178 91.8484C17.4753 88.6702 16.8537 85.3293 16.8537 81.8268C16.8538 78.1948 17.4754 74.8221 18.7178 71.7088C19.0043 70.976 19.3201 70.2637 19.6622 69.5723C19.3739 68.9584 19.2623 68.2547 19.383 67.5362C19.4169 67.3322 19.3995 66.575 18.9382 65.249C18.509 64.0157 17.8037 62.6028 16.8907 61.2407C14.9294 58.3151 12.6484 56.5346 11 56.2373L12.2537 49.3988C16.7716 50.2135 20.447 53.994 22.7252 57.3925C23.744 58.9122 24.604 60.5334 25.2353 62.1148C27.2417 60.2323 29.5169 58.7274 32.0608 57.6001C35.2001 56.1731 38.6016 55.4595 42.2641 55.4595C45.9265 55.4596 49.295 56.1732 52.3688 57.6001C55.4425 58.9622 58.1235 60.8759 60.4124 63.3405C62.7015 65.7405 64.4678 68.5304 65.7104 71.7088C66.8301 74.5143 67.4447 77.5304 67.5554 80.7572H75.317C75.4528 76.3746 76.4265 72.3522 78.2418 68.6914C80.2692 64.6702 83.0482 61.4592 86.5796 59.0593C90.1114 56.6593 94.1342 55.4595 98.647 55.4595C102.898 55.4595 106.692 56.5949 110.027 58.8652C113.428 61.0706 116.077 63.7621 117.974 66.9403V36H124.645V99.0494ZM42.1655 61.2977C38.7646 61.2977 35.6574 62.2386 32.845 64.1197C30.0984 66.0007 27.8746 68.4978 26.1742 71.6111C24.4738 74.6597 23.6231 78.0976 23.6231 81.9246C23.6231 85.6866 24.4407 89.1246 26.0757 92.238C27.7761 95.2865 30.0328 97.7191 32.845 99.5353C35.6574 101.287 38.7646 102.162 42.1655 102.162C45.5665 102.162 48.6738 101.254 51.4861 99.4376C54.2979 97.6215 56.5537 95.1569 58.254 92.0439C59.9544 88.8657 60.8051 85.4276 60.8052 81.7304C60.8052 77.9684 59.9544 74.5305 58.254 71.417C56.5537 68.3037 54.2981 65.8381 51.4861 64.0219C48.6738 62.2057 45.5665 61.2977 42.1655 61.2977ZM100.315 61.2977C97.5685 61.2977 95.0827 61.8812 92.859 63.0487C90.6354 64.1514 88.706 65.6759 87.071 67.6217C85.5014 69.5676 84.2916 71.773 83.4413 74.2377C82.5911 76.7024 82.1658 79.2323 82.1657 81.8268C82.1657 84.5512 82.6228 87.1466 83.5385 89.6114C84.5195 92.0762 85.8937 94.2815 87.6595 96.2274C89.4254 98.1084 91.4527 99.5685 93.7418 100.606C96.0308 101.644 98.5168 102.162 101.198 102.162C102.898 102.162 104.664 101.838 106.495 101.19C108.326 100.541 110.059 99.6647 111.694 98.5621C113.395 97.3945 114.802 96.0331 115.914 94.4763C117.026 92.9197 117.712 91.2978 117.974 89.6114V73.9458C117.123 71.6108 115.749 69.5028 113.853 67.6217C111.956 65.6761 109.799 64.1513 107.379 63.0487C105.025 61.8812 102.67 61.2978 100.315 61.2977ZM49.7752 75.1973C54.4194 75.1973 58.1842 78.9312 58.1842 83.5371C58.184 88.1429 54.4192 91.8769 49.7752 91.8769C45.1314 91.8768 41.3665 88.1428 41.3663 83.5371C41.3663 78.9313 45.1312 75.1975 49.7752 75.1973ZM91.8202 75.1973C96.4644 75.1973 100.229 78.9312 100.229 83.5371C100.229 88.1429 96.4642 91.8769 91.8202 91.8769C87.1763 91.8768 83.4115 88.1428 83.4112 83.5371C83.4112 78.9313 87.1762 75.1975 91.8202 75.1973Z" fill="url(#paint0_linear_955_831)"/>
<defs>
<linearGradient id="paint0_linear_955_831" x1="99.0311" y1="42.5455" x2="99.0311" y2="108" gradientUnits="userSpaceOnUse">
<stop stop-color="#53B9F5"/>
<stop offset="1" stop-color="#1977FF"/>
</linearGradient>
</defs>
</svg>
