<svg width="100" height="100" viewBox="0 0 481 481" fill="none" xmlns="http://www.w3.org/2000/svg">
<path fill-rule="evenodd" clip-rule="evenodd" d="M208.565 2.06192C171.728 7.07592 137.945 19.7699 107.532 40.0269C92.51 50.0319 84.508 56.5719 71.163 69.7489C32.369 108.052 8.647 155.796 1.577 209.801C-0.449005 225.276 -0.449005 255.724 1.577 271.199C8.647 325.204 32.369 372.948 71.163 411.251C84.479 424.399 92.467 430.932 107.532 440.993C134.771 459.183 165.953 471.606 199.532 477.645C211.11 479.727 215.539 479.981 240.032 479.968C269.888 479.951 276.469 479.233 299.032 473.529C331.916 465.216 363.749 449.366 389.772 428.348C393.754 425.131 397.357 422.5 397.779 422.5C398.201 422.5 410.918 434.905 426.039 450.066C441.16 465.227 454.747 478.277 456.232 479.066C457.718 479.855 461.363 480.5 464.334 480.5C470.635 480.5 475.311 477.899 478.343 472.707C480.691 468.686 480.872 460.996 478.713 456.923C477.861 455.316 464.759 441.628 449.598 426.507C434.437 411.386 422.032 398.669 422.032 398.247C422.032 397.825 424.663 394.222 427.88 390.24C448.898 364.217 464.748 332.384 473.061 299.5C478.765 276.937 479.483 270.356 479.5 240.5C479.513 216.007 479.259 211.578 477.177 200C468.311 150.699 445.584 106.575 411.113 71.7369C372.849 33.0659 324.558 9.09192 270.731 2.04492C256.147 0.135919 222.654 0.144919 208.565 2.06192ZM162.254 164.547C155.688 167.828 151.364 172.082 147.791 178.778C145.908 182.305 145.537 184.563 145.535 192.5C145.532 201.15 145.796 202.476 148.478 207.319C151.769 213.259 156.019 217.384 162.31 220.741C165.837 222.624 168.095 222.995 176.032 222.997C184.682 223 186.008 222.736 190.851 220.054C196.791 216.763 200.916 212.513 204.273 206.222C206.157 202.693 206.526 200.44 206.526 192.5C206.526 184.56 206.157 182.307 204.273 178.778C200.7 172.082 196.376 167.828 189.81 164.547C184.603 161.945 182.591 161.5 176.032 161.5C169.473 161.5 167.461 161.945 162.254 164.547ZM290.254 164.547C283.688 167.828 279.364 172.082 275.791 178.778C273.908 182.305 273.537 184.563 273.535 192.5C273.532 201.15 273.796 202.476 276.478 207.319C279.769 213.259 284.019 217.384 290.31 220.741C293.837 222.624 296.095 222.995 304.032 222.997C312.682 223 314.008 222.736 318.851 220.054C324.791 216.763 328.916 212.513 332.273 206.222C334.157 202.693 334.526 200.44 334.526 192.5C334.526 184.56 334.157 182.307 332.273 178.778C328.7 172.082 324.376 167.828 317.81 164.547C312.603 161.945 310.591 161.5 304.032 161.5C297.473 161.5 295.461 161.945 290.254 164.547ZM231.532 241.608C199.758 244.022 169.003 265.082 154.553 294.319C150.436 302.65 150.226 305.487 153.282 311.515C156 316.877 160.706 319.833 166.522 319.833C173.299 319.833 177.089 316.759 182.667 306.739C189.7 294.106 199.265 284.872 211.302 279.097C222.336 273.803 228.103 272.495 240.331 272.515C265.776 272.556 285.55 284.817 298.619 308.658C300.916 312.849 303.658 316.342 305.587 317.534C309.949 320.23 317.252 320.145 321.782 317.345C325.476 315.063 328.972 308.823 329.01 304.447C329.041 300.843 322.163 287.132 316.691 279.892C296.449 253.105 265.186 239.051 231.532 241.608Z" fill="#1977FF"/>
</svg>
